<svg width="800" height="600" viewBox="0 0 800 600" fill="none" xmlns="http://www.w3.org/2000/svg">
<g id="Logo">
<rect id="Rectangle 12" width="800" height="600" rx="30" fill="black"/>
<path id="P" d="M326.5 170.25C348.667 170.25 367.667 174.167 383.5 182C399.333 189.833 411.333 200.917 419.5 215.25C427.833 229.583 432 246.167 432 265C432 283.833 427.833 300.333 419.5 314.5C411.333 328.5 399.333 339.417 383.5 347.25C367.667 354.917 348.667 358.75 326.5 358.75H267.75V433H327.75C333.417 433 337.417 434.333 339.75 437C342.25 439.5 343.5 443.833 343.5 450C343.5 456.167 342.25 460.583 339.75 463.25C337.417 465.75 333.417 467 327.75 467H189.75C184.083 467 180 465.75 177.5 463.25C175.167 460.583 174 456.167 174 450C174 443.833 175.167 439.5 177.5 437C180 434.333 184.083 433 189.75 433H230.25V204.25H189.75C184.083 204.25 180 203 177.5 200.5C175.167 197.833 174 193.417 174 187.25C174 181.083 175.167 176.75 177.5 174.25C180 171.583 184.083 170.25 189.75 170.25H326.5ZM267.75 324.75H321.25C344.417 324.75 362.083 319.5 374.25 309C386.417 298.5 392.5 283.833 392.5 265C392.5 245.833 386.333 230.917 374 220.25C361.833 209.583 344.25 204.25 321.25 204.25H267.75V324.75Z" fill="white"/>
<line id="Line 3" x1="461" y1="447" x2="648.013" y2="447" stroke="#FDFFA9" stroke-width="40"/>
<rect id="Rectangle 13" x="10" y="10" width="780" height="580" rx="20" stroke="url(#paint0_angular_101_1076)" stroke-width="20"/>
</g>
<defs>
<radialGradient id="paint0_angular_101_1076" cx="0" cy="0" r="1" gradientUnits="userSpaceOnUse" gradientTransform="translate(400 300) rotate(90) scale(300 400)">
<stop offset="0.0885417" stop-color="#229DFF"/>
<stop offset="0.286458" stop-color="#FF486D"/>
<stop offset="0.458333" stop-color="#FF5353" stop-opacity="0.839297"/>
<stop offset="0.645833" stop-color="#FF4E5E"/>
<stop offset="0.791667" stop-color="#D298FF"/>
<stop offset="1" stop-color="#FFF493"/>
</radialGradient>
</defs>
</svg>
